<?xml version="1.0" standalone="no"?><!DOCTYPE svg PUBLIC "-//W3C//DTD SVG 1.1//EN" "http://www.w3.org/Graphics/SVG/1.1/DTD/svg11.dtd"><svg t="1525609078125" class="icon" style="" viewBox="0 0 1024 1024" version="1.1" xmlns="http://www.w3.org/2000/svg" p-id="1908" xmlns:xlink="http://www.w3.org/1999/xlink" width="64" height="64"><defs><style type="text/css"></style></defs><path d="M916.98762081 423.62346411H421.04939025c-9.43827083 0-16.30246778-7.72222158-16.3024678-16.30246778 0-9.43827083 7.72222158-16.30246778 16.3024678-16.30246779h452.17897491l-197.34566265-176.7530718H348.11729749l-197.34566265 176.7530718h135.56789c9.43827083 0 16.30246778 7.72222158 16.3024678 16.30246779 0 9.43827083-7.72222158 16.30246778-16.3024678 16.30246778H107.01237919c-6.86419697 0-12.87036929-4.29012309-15.44444318-11.15432008s-0.85802462-13.72839391 4.2901231-18.01851702l234.24072138-210.21603199c3.43209849-2.57407386 6.86419697-4.29012309 11.15432006-4.29012311h340.63577428c4.29012309 0 7.72222158 1.71604925 11.15432007 4.29012311l234.24072135 210.21603199c5.14814772 4.29012309 6.86419697 12.01234468 4.29012311 18.01851702-1.71604925 6.86419697-7.72222158 11.15432006-14.58641855 11.15432008z" p-id="1909" fill="#e6e6e6"></path><path d="M512 844.05552809c-4.29012309 0-8.5802462-1.71604925-12.01234468-5.14814773-4.29012309-4.29012309-386.96910378-402.41354694-404.12959621-420.43206398-6.86419697-6.86419697-6.86419697-17.16049241 0-24.02468937s17.16049241-6.86419697 24.0246894 0c16.30246778 16.30246778 326.04935575 338.91972505 392.97527611 408.41971928l392.97527613-407.56169465c6.00617233-6.86419697 17.16049241-6.86419697 24.02468937-0.85802463 6.86419697 6.00617233 6.86419697 17.16049241 0.85802463 24.02468937l-404.98762084 420.43206398c-5.14814772 3.43209849-9.43827083 5.14814772-13.72839391 5.14814773z" p-id="1910" fill="#e6e6e6"></path><path d="M512 844.05552809c-6.00617233 0-12.01234468-3.43209849-14.58641855-8.5802462l-228.23454902-420.43206399c-1.71604925-3.43209849-2.57407386-8.5802462-1.71604924-12.01234467l58.34567419-210.21603202c2.57407386-8.5802462 12.01234468-13.72839391 20.59259089-12.01234469 8.5802462 2.57407386 13.72839391 12.01234468 12.01234468 20.5925909l-56.62962494 203.35183503 225.66047515 414.42589164c4.29012309 7.72222158 1.71604925 18.01851702-6.86419696 22.30864013-3.43209849 1.71604925-6.00617233 2.57407386-8.5802462 2.57407387z" p-id="1911" fill="#e6e6e6"></path><path d="M512 844.05552809c-2.57407386 0-5.14814772-0.85802462-7.72222158-1.71604924-7.72222158-4.29012309-11.15432006-14.58641855-6.86419697-22.30864013l225.66047515-414.42589164-56.62962493-204.20985966c-2.57407386-8.5802462 2.57407386-18.01851702 12.01234468-20.5925909 8.5802462-2.57407386 18.01851702 2.57407386 20.59259089 12.01234469l58.34567418 210.21603202c0.85802462 4.29012309 0.85802462 8.5802462-1.71604924 12.01234467l-228.23454902 420.43206399c-3.43209849 5.14814772-9.43827083 8.5802462-15.44444316 8.5802462z" p-id="1912" fill="#e6e6e6"></path></svg>