<?xml version="1.0" standalone="no"?><!DOCTYPE svg PUBLIC "-//W3C//DTD SVG 1.1//EN" "http://www.w3.org/Graphics/SVG/1.1/DTD/svg11.dtd"><svg t="1525609261300" class="icon" style="" viewBox="0 0 1024 1024" version="1.1" xmlns="http://www.w3.org/2000/svg" p-id="1453" xmlns:xlink="http://www.w3.org/1999/xlink" width="64" height="64"><defs><style type="text/css"></style></defs><path d="M406.055 511.941c0 0.004 0 0.007 0 0.008 0 58.479 47.407 105.886 105.886 105.886 58.478 0 105.886-47.407 105.886-105.886 0-0.004 0-0.008 0-0.008 0-0.003 0-0.007 0-0.007 0-58.478-47.407-105.886-105.886-105.886-58.478 0-105.886 47.407-105.886 105.886 0 0.004 0 0.007 0 0.007z" p-id="1454" fill="#e6e6e6"></path><path d="M511.941 859.615c-191.564 0-347.555-155.992-347.555-347.674s155.992-347.555 347.555-347.555 347.555 155.992 347.555 347.555-155.874 347.674-347.555 347.674zM511.941 235.292c-152.565 0-276.65 124.085-276.65 276.65s124.085 276.65 276.65 276.65 276.65-124.085 276.65-276.65-124.085-276.65-276.65-276.65z" p-id="1455" fill="#e6e6e6"></path></svg>