<?xml version="1.0" standalone="no"?><!DOCTYPE svg PUBLIC "-//W3C//DTD SVG 1.1//EN" "http://www.w3.org/Graphics/SVG/1.1/DTD/svg11.dtd"><svg t="1525609043372" class="icon" style="" viewBox="0 0 1024 1024" version="1.1" xmlns="http://www.w3.org/2000/svg" p-id="985" xmlns:xlink="http://www.w3.org/1999/xlink" width="64" height="64"><defs><style type="text/css"></style></defs><path d="M384 192H256V64c0-38.4 25.6-64 64-64h64v192zM768 192h-128V0h64c38.4 0 64 25.6 64 64v128zM384 0h256v128H384z" fill="#e6e6e6" p-id="986"></path><path d="M896 576v320H128V576h768m128-128H0v512c0 38.4 25.6 64 64 64h896c38.4 0 64-25.6 64-64V448z" fill="#e6e6e6" p-id="987"></path><path d="M896 320v128H128V320h768m64-128H64c-38.4 0-64 25.6-64 64v320h1024V256c0-38.4-25.6-64-64-64z" fill="#e6e6e6" p-id="988"></path></svg>